<?xml version="1.0" encoding="UTF-8" standalone="no"?>
<!-- Created with Inkscape (http://www.inkscape.org/) -->

<svg
   xmlns:dc="http://purl.org/dc/elements/1.1/"
   xmlns:cc="http://creativecommons.org/ns#"
   xmlns:rdf="http://www.w3.org/1999/02/22-rdf-syntax-ns#"
   xmlns:svg="http://www.w3.org/2000/svg"
   xmlns="http://www.w3.org/2000/svg"
   xmlns:sodipodi="http://sodipodi.sourceforge.net/DTD/sodipodi-0.dtd"
   xmlns:inkscape="http://www.inkscape.org/namespaces/inkscape"
   width="210mm"
   height="297mm"
   viewBox="0 0 210 297"
   version="1.1"
   id="svg8"
   inkscape:version="0.92.5 (2060ec1f9f, 2020-04-08)"
   sodipodi:docname="overlayInkscape2.svg">
  <defs
     id="defs2">
    <inkscape:path-effect
       effect="spiro"
       id="path-effect4592"
       is_visible="true" />
    <inkscape:path-effect
       effect="spiro"
       id="path-effect12"
       is_visible="true" />
  </defs>
  <sodipodi:namedview
     id="base"
     pagecolor="#ffffff"
     bordercolor="#666666"
     borderopacity="1.0"
     inkscape:pageopacity="0.0"
     inkscape:pageshadow="2"
     inkscape:zoom="0.24748738"
     inkscape:cx="-358.58882"
     inkscape:cy="484.0915"
     inkscape:document-units="mm"
     inkscape:current-layer="layer1"
     showgrid="false"
     inkscape:window-width="1366"
     inkscape:window-height="688"
     inkscape:window-x="0"
     inkscape:window-y="28"
     inkscape:window-maximized="1" />
  <metadata
     id="metadata5">
    <rdf:RDF>
      <cc:Work
         rdf:about="">
        <dc:format>image/svg+xml</dc:format>
        <dc:type
           rdf:resource="http://purl.org/dc/dcmitype/StillImage" />
        <dc:title />
      </cc:Work>
    </rdf:RDF>
  </metadata>
  <g
     inkscape:label="Capa 1"
     inkscape:groupmode="layer"
     id="layer1">
    <path
       style="opacity:1;fill:#2879c2;fill-opacity:0;stroke:none;stroke-width:2.02030516"
       d="m 526.14575,882.71268 c -20.83642,-2.25458 -39.43953,-6.56413 -77.84062,-18.0324 -23.36689,-6.97837 -49.73187,-13.85971 -58.58885,-15.29187 -26.1063,-4.22134 -69.22822,-2.95712 -118.12897,3.46323 -35.85254,4.70721 -51.02059,5.71142 -86.87312,5.75144 -39.18327,0.0439 -45.21701,-0.41642 -61.61931,-4.69961 C 66.268667,839.06421 27.701572,805.07258 13.925877,757.68584 11.265785,748.53545 10.706012,740.9413 11.476496,724.45642 12.649973,699.34928 17.664707,681.99399 34.50183,644.76894 62.090666,583.77302 71.407533,551.8124 75.705932,503.42226 80.210991,452.70559 73.701089,408.92996 48.549994,320.81302 40.23519,291.68208 32.346692,260.42407 31.020002,251.35077 c -6.101117,-41.72579 5.601151,-76.83733 31.294748,-93.89692 7.787256,-5.17045 16.538701,-8.44721 32.677415,-12.23526 37.548475,-8.81332 46.794235,-12.32356 97.803245,-37.132 52.66592,-25.614294 70.14095,-31.740772 95.96449,-33.6437 27.32818,-2.013804 45.35302,4.132226 78.01947,26.60275 57.73705,39.71602 71.15761,43.0544 146.80442,36.51785 31.23093,-2.69862 42.24812,-2.91973 55.55839,-1.11503 87.11035,11.81109 157.54911,86.76428 173.24062,184.34365 3.82484,23.78517 1.51165,64.42198 -5.01644,88.12591 -6.15449,22.34734 -17.37474,47.12473 -29.48253,65.10553 -4.77459,7.09054 -19.30664,23.80155 -32.29347,37.13557 -27.71293,28.45383 -31.06936,33.89849 -31.13611,50.50762 -0.0632,15.72192 5.06684,26.22358 22.67938,46.42682 29.46007,33.79346 38.94532,49.36039 46.18746,75.80164 5.61948,20.51683 5.13406,59.21135 -0.98734,78.70489 -22.38744,71.29276 -82.05865,115.75604 -160.93419,119.91821 -10.00051,0.52773 -21.36473,0.61519 -25.25381,0.19436 z"
       id="path4530"
       inkscape:connector-curvature="0"
       transform="scale(0.26458333)" />
    <path
       style="fill:#28c23f;fill-opacity:0;stroke:none;stroke-width:2.02030516"
       d="m 519.27671,881.91817 c -18.48711,-2.14336 -36.72796,-6.49683 -67.68022,-16.15294 -37.19325,-11.60312 -55.11673,-15.73773 -78.7919,-18.17586 -25.40772,-2.61656 -45.75983,-1.49426 -102.02541,5.62605 -34.4698,4.3621 -50.7619,5.36948 -86.87312,5.37154 -51.44848,0.002 -64.89025,-2.50344 -96.97464,-18.08221 C 33.785038,814.69921 4.1261893,765.88526 11.216793,715.89001 14.65786,691.62733 22.190279,670.39417 44.318856,622.57848 76.653551,552.7093 84.649338,479.03237 68.579215,399.03218 65.789128,385.14259 57.149852,351.31997 49.380824,323.87083 41.611795,296.4217 33.927233,267.02205 32.304021,258.53828 24.678212,218.68177 31.794917,186.37193 52.833808,165.33304 64.12494,154.04191 73.603835,149.8041 101.8096,143.43703 c 31.33988,-7.07456 45.16683,-12.48316 95.14128,-37.21579 47.13318,-23.326474 66.9982,-30.146799 92.97259,-31.920605 27.92056,-1.906712 44.02585,4.38377 89.16251,34.825515 48.29903,32.57454 62.30288,35.14645 148.25116,27.22739 59.83043,-5.51262 109.84732,13.4539 152.70603,57.90647 44.28073,45.92749 66.47006,104.06437 63.89092,167.39653 -2.42453,59.53496 -21.50003,101.47213 -67.86599,149.20222 -27.99565,28.81931 -31.33533,34.21659 -31.43847,50.80798 -0.10485,16.86612 6.77831,29.71576 29.11738,54.3571 19.8876,21.93722 31.00128,40.83006 38.73681,65.85106 6.59712,21.33878 6.68208,56.83265 0.19011,79.38079 -16.83894,58.48468 -60.75783,99.86342 -122.68644,115.59061 -20.97618,5.32704 -50.34213,7.43337 -70.71068,5.07187 z"
       id="path4534"
       inkscape:connector-curvature="0"
       transform="scale(0.26458333)" />
    <path
       style="fill:#2879c2;stroke:none;stroke-width:0.26458332px;stroke-linecap:butt;stroke-linejoin:miter;stroke-opacity:1;fill-opacity:0.3137255"
       d="M 0,-0.20371456 C 5.0362192,3.9733899 9.0941572,9.3224901 11.759859,15.297918 c 5.702535,12.782782 4.820669,27.418053 7.483547,41.159505 2.726488,14.069704 9.224006,27.392955 10.156242,41.694047 0.615204,9.43763 -1.241976,18.88887 -4.046295,27.9212 -2.804319,9.03234 -6.55063,17.73893 -9.85172,26.60178 -2.739268,7.35445 -5.182735,14.85826 -6.4601736,22.60163 -1.2774385,7.74337 -1.3613576,15.76467 0.5802436,23.36873 2.14929,8.41745 6.705013,16.10003 8.552625,24.5888 1.673672,7.68961 1.048375,15.66687 0.534539,23.51972 -0.340192,5.19909 -0.625428,10.45267 0.226156,15.59282 0.851584,5.14014 2.940737,10.22327 6.722851,13.80683 2.351028,2.22761 5.345683,3.82345 8.552626,4.2763 2.946258,0.41604 5.955448,-0.13078 8.789327,-1.03779 2.833879,-0.907 5.539226,-2.16917 8.315922,-3.23851 9.02747,-3.47659 18.708609,-4.88006 28.33057,-5.87994 12.988249,-1.3497 26.211221,-1.99861 39.021351,0.53453 9.78707,1.93535 19.46529,5.72787 29.39965,4.81087 5.47418,-0.5053 10.7006,-2.4257 15.92964,-4.12251 5.22903,-1.6968 10.65792,-3.19961 16.1427,-2.82651 2.69252,0.18316 5.33091,0.81549 7.98821,1.28661 2.6573,0.47112 5.38944,0.78121 8.04796,0.31701 3.14395,-0.54896 6.02789,-2.1637 8.47813,-4.20873 2.45024,-2.04503 4.50608,-4.51579 6.48896,-7.01659 29.0545,-36.64331 45.20523,-83.31656 45.01279,-130.08042 C 255.96326,82.203431 239.42895,35.664687 210.07385,-0.73825361"
       id="path4590"
       inkscape:connector-curvature="0"
       inkscape:path-effect="#path-effect4592"
       inkscape:original-d="M 0,-0.20371456 C 3.9202177,4.9632316 7.8401705,10.130442 11.759859,15.297918 c 3.919689,5.167475 4.989296,27.439407 7.483547,41.159505 2.494251,13.720101 6.771092,27.795768 10.156242,41.694047 3.38515,13.89828 -9.265079,36.34839 -13.898015,54.52298 -4.632937,18.17459 -3.919689,30.64665 -5.87993,45.97036 -1.9602413,15.32372 5.702014,16.39227 8.552625,24.5888 2.85061,8.19653 0.356624,15.67955 0.534539,23.51972 0.177915,7.84017 4.632936,19.59951 6.949007,29.39965 2.316072,9.80014 5.702016,2.85059 8.552626,4.2763 2.85061,1.42571 11.403764,-2.85112 17.105249,-4.2763 5.701485,-1.42518 18.88731,-3.92023 28.33057,-5.87994 9.443256,-1.95972 26.014501,0.3561 39.021351,0.53453 13.00685,0.17846 19.60003,3.20699 29.39965,4.81087 9.79962,1.60388 21.38182,-4.63293 32.07234,-6.94902 10.69052,-2.31605 10.69105,1.06881 16.03617,1.60362 5.34513,0.5348 9.97833,-7.48381 14.96709,-11.22532 4.98877,-3.7415 -0.71245,-173.190914 -1.06907,-259.78597361" />
  </g>
</svg>
