<?xml version="1.0" encoding="UTF-8" standalone="no"?>
<!-- Created with Inkscape (http://www.inkscape.org/) -->

<svg
   xmlns:dc="http://purl.org/dc/elements/1.1/"
   xmlns:cc="http://creativecommons.org/ns#"
   xmlns:rdf="http://www.w3.org/1999/02/22-rdf-syntax-ns#"
   xmlns:svg="http://www.w3.org/2000/svg"
   xmlns="http://www.w3.org/2000/svg"
   xmlns:sodipodi="http://sodipodi.sourceforge.net/DTD/sodipodi-0.dtd"
   xmlns:inkscape="http://www.inkscape.org/namespaces/inkscape"
   width="210mm"
   height="297mm"
   viewBox="0 0 210 297"
   version="1.1"
   id="svg8"
   inkscape:version="0.92.5 (2060ec1f9f, 2020-04-08)"
   sodipodi:docname="overlayInkscape.svg">
  <defs
     id="defs2">
    <inkscape:path-effect
       effect="spiro"
       id="path-effect12"
       is_visible="true" />
  </defs>
  <sodipodi:namedview
     id="base"
     pagecolor="#ffffff"
     bordercolor="#666666"
     borderopacity="1.0"
     inkscape:pageopacity="0.0"
     inkscape:pageshadow="2"
     inkscape:zoom="0.49497475"
     inkscape:cx="26.120237"
     inkscape:cy="451.9585"
     inkscape:document-units="mm"
     inkscape:current-layer="layer1"
     showgrid="false"
     inkscape:window-width="1366"
     inkscape:window-height="688"
     inkscape:window-x="0"
     inkscape:window-y="28"
     inkscape:window-maximized="1" />
  <metadata
     id="metadata5">
    <rdf:RDF>
      <cc:Work
         rdf:about="">
        <dc:format>image/svg+xml</dc:format>
        <dc:type
           rdf:resource="http://purl.org/dc/dcmitype/StillImage" />
        <dc:title></dc:title>
      </cc:Work>
    </rdf:RDF>
  </metadata>
  <g
     inkscape:label="Capa 1"
     inkscape:groupmode="layer"
     id="layer1">
    <path
       style="opacity:1;fill:#2879c2;fill-opacity:0;stroke:none;stroke-width:2.02030516"
       d="m 526.14575,882.71268 c -20.83642,-2.25458 -39.43953,-6.56413 -77.84062,-18.0324 -23.36689,-6.97837 -49.73187,-13.85971 -58.58885,-15.29187 -26.1063,-4.22134 -69.22822,-2.95712 -118.12897,3.46323 -35.85254,4.70721 -51.02059,5.71142 -86.87312,5.75144 -39.18327,0.0439 -45.21701,-0.41642 -61.61931,-4.69961 C 66.268667,839.06421 27.701572,805.07258 13.925877,757.68584 11.265785,748.53545 10.706012,740.9413 11.476496,724.45642 12.649973,699.34928 17.664707,681.99399 34.50183,644.76894 62.090666,583.77302 71.407533,551.8124 75.705932,503.42226 80.210991,452.70559 73.701089,408.92996 48.549994,320.81302 40.23519,291.68208 32.346692,260.42407 31.020002,251.35077 c -6.101117,-41.72579 5.601151,-76.83733 31.294748,-93.89692 7.787256,-5.17045 16.538701,-8.44721 32.677415,-12.23526 37.548475,-8.81332 46.794235,-12.32356 97.803245,-37.132 52.66592,-25.614294 70.14095,-31.740772 95.96449,-33.6437 27.32818,-2.013804 45.35302,4.132226 78.01947,26.60275 57.73705,39.71602 71.15761,43.0544 146.80442,36.51785 31.23093,-2.69862 42.24812,-2.91973 55.55839,-1.11503 87.11035,11.81109 157.54911,86.76428 173.24062,184.34365 3.82484,23.78517 1.51165,64.42198 -5.01644,88.12591 -6.15449,22.34734 -17.37474,47.12473 -29.48253,65.10553 -4.77459,7.09054 -19.30664,23.80155 -32.29347,37.13557 -27.71293,28.45383 -31.06936,33.89849 -31.13611,50.50762 -0.0632,15.72192 5.06684,26.22358 22.67938,46.42682 29.46007,33.79346 38.94532,49.36039 46.18746,75.80164 5.61948,20.51683 5.13406,59.21135 -0.98734,78.70489 -22.38744,71.29276 -82.05865,115.75604 -160.93419,119.91821 -10.00051,0.52773 -21.36473,0.61519 -25.25381,0.19436 z"
       id="path4530"
       inkscape:connector-curvature="0"
       transform="scale(0.26458333)" />
    <path
       style="fill:#28c23f;fill-opacity:0;stroke:none;stroke-width:2.02030516"
       d="m 519.27671,881.91817 c -18.48711,-2.14336 -36.72796,-6.49683 -67.68022,-16.15294 -37.19325,-11.60312 -55.11673,-15.73773 -78.7919,-18.17586 -25.40772,-2.61656 -45.75983,-1.49426 -102.02541,5.62605 -34.4698,4.3621 -50.7619,5.36948 -86.87312,5.37154 -51.44848,0.002 -64.89025,-2.50344 -96.97464,-18.08221 C 33.785038,814.69921 4.1261893,765.88526 11.216793,715.89001 14.65786,691.62733 22.190279,670.39417 44.318856,622.57848 76.653551,552.7093 84.649338,479.03237 68.579215,399.03218 65.789128,385.14259 57.149852,351.31997 49.380824,323.87083 41.611795,296.4217 33.927233,267.02205 32.304021,258.53828 24.678212,218.68177 31.794917,186.37193 52.833808,165.33304 64.12494,154.04191 73.603835,149.8041 101.8096,143.43703 c 31.33988,-7.07456 45.16683,-12.48316 95.14128,-37.21579 47.13318,-23.326474 66.9982,-30.146799 92.97259,-31.920605 27.92056,-1.906712 44.02585,4.38377 89.16251,34.825515 48.29903,32.57454 62.30288,35.14645 148.25116,27.22739 59.83043,-5.51262 109.84732,13.4539 152.70603,57.90647 44.28073,45.92749 66.47006,104.06437 63.89092,167.39653 -2.42453,59.53496 -21.50003,101.47213 -67.86599,149.20222 -27.99565,28.81931 -31.33533,34.21659 -31.43847,50.80798 -0.10485,16.86612 6.77831,29.71576 29.11738,54.3571 19.8876,21.93722 31.00128,40.83006 38.73681,65.85106 6.59712,21.33878 6.68208,56.83265 0.19011,79.38079 -16.83894,58.48468 -60.75783,99.86342 -122.68644,115.59061 -20.97618,5.32704 -50.34213,7.43337 -70.71068,5.07187 z"
       id="path4534"
       inkscape:connector-curvature="0"
       transform="scale(0.26458333)" />
    <path
       style="fill:#2879c2;fill-opacity:0.35078538;stroke:none;stroke-width:0.58926761"
       d="m 144.97125,261.09753 c -5.1472,-0.65493 -10.22584,-1.98515 -18.84359,-4.93561 -10.35539,-3.54539 -15.34566,-4.80874 -21.93733,-5.55373 -7.074049,-0.7995 -12.740499,-0.45658 -28.406019,1.71907 -9.59712,1.33287 -14.13318,1.64066 -24.1873,1.6413 -14.32434,6.1e-4 -18.06681,-0.76494 -26.99978,-5.5251 -14.79707,-7.88501 -23.05472,-22.80036 -21.08055,-38.07665 0.95807,-7.41359 3.05525,-13.90147 9.21631,-28.51178 9.00266,-21.34887 11.22886,-43.86122 6.7546,-68.30567 -0.77682,-4.24403 -3.18218,-14.578692 -5.34524,-22.965912 -2.16306,-8.387221 -4.3026,-17.370421 -4.75454,-19.962679 -2.12319,-12.178349 -0.14175,-22.050778 5.71592,-28.479312 3.14369,-3.450059 5.78282,-4.744944 13.6359,-6.690433 8.72568,-2.161666 12.57539,-3.81429 26.48933,-11.371466 13.12287,-7.127516 18.65371,-9.211501 25.88552,-9.753496 7.77367,-0.582604 12.25772,1.339483 24.824719,10.641105 13.44747,9.95331 17.34644,10.739169 41.27624,8.319462 16.65805,-1.684407 30.58381,4.110904 42.51657,17.693602 12.32869,14.03337 18.50666,31.797372 17.78858,51.148829 -0.67504,18.19119 -5.98606,31.00531 -18.89533,45.58945 -7.79457,8.80588 -8.7244,10.45506 -8.75312,15.52464 -0.0292,5.15351 1.88723,9.07979 8.10689,16.60907 5.53712,6.70303 8.63141,12.47581 10.78514,20.1211 1.83678,6.52018 1.86044,17.3655 0.0529,24.25521 -4.68832,17.87027 -16.91625,30.51374 -34.15849,35.31924 -5.8402,1.62772 -14.01631,2.27132 -19.68734,1.54976 z"
       id="path4536"
       inkscape:connector-curvature="0" />
  </g>
</svg>
