<?xml version="1.0" encoding="UTF-8" standalone="no"?>
<!-- Created with Inkscape (http://www.inkscape.org/) -->

<svg
   xmlns:dc="http://purl.org/dc/elements/1.1/"
   xmlns:cc="http://creativecommons.org/ns#"
   xmlns:rdf="http://www.w3.org/1999/02/22-rdf-syntax-ns#"
   xmlns:svg="http://www.w3.org/2000/svg"
   xmlns="http://www.w3.org/2000/svg"
   xmlns:sodipodi="http://sodipodi.sourceforge.net/DTD/sodipodi-0.dtd"
   xmlns:inkscape="http://www.inkscape.org/namespaces/inkscape"
   width="210mm"
   height="297mm"
   viewBox="0 0 210 297"
   version="1.1"
   id="svg8"
   inkscape:version="0.92.5 (2060ec1f9f, 2020-04-08)"
   sodipodi:docname="overlayInkscape4.svg">
  <defs
     id="defs2">
    <inkscape:path-effect
       effect="spiro"
       id="path-effect843"
       is_visible="true" />
    <inkscape:path-effect
       effect="spiro"
       id="path-effect839"
       is_visible="true" />
    <inkscape:path-effect
       effect="spiro"
       id="path-effect829"
       is_visible="true" />
    <inkscape:path-effect
       effect="spiro"
       id="path-effect825"
       is_visible="true" />
    <inkscape:path-effect
       effect="spiro"
       id="path-effect817"
       is_visible="true" />
  </defs>
  <sodipodi:namedview
     id="base"
     pagecolor="#ffffff"
     bordercolor="#666666"
     borderopacity="1.0"
     inkscape:pageopacity="0.0"
     inkscape:pageshadow="2"
     inkscape:zoom="0.7"
     inkscape:cx="190.00611"
     inkscape:cy="335.00628"
     inkscape:document-units="mm"
     inkscape:current-layer="layer1"
     showgrid="false"
     inkscape:window-width="1366"
     inkscape:window-height="688"
     inkscape:window-x="0"
     inkscape:window-y="28"
     inkscape:window-maximized="1" />
  <metadata
     id="metadata5">
    <rdf:RDF>
      <cc:Work
         rdf:about="">
        <dc:format>image/svg+xml</dc:format>
        <dc:type
           rdf:resource="http://purl.org/dc/dcmitype/StillImage" />
        <dc:title></dc:title>
      </cc:Work>
    </rdf:RDF>
  </metadata>
  <g
     inkscape:label="Capa 1"
     inkscape:groupmode="layer"
     id="layer1"
     style="opacity:1">
    <path
       style="fill:none;stroke:#000000;stroke-width:0.26458332px;stroke-linecap:butt;stroke-linejoin:miter;stroke-opacity:1"
       d="m 0,232.32077 v 65.21377"
       id="path823"
       inkscape:connector-curvature="0"
       inkscape:path-effect="#path-effect825"
       inkscape:original-d="m 0,232.32077 c 2.6458333e-4,21.73766 2.6458333e-4,43.47558 0,65.21377" />
    <path
       style="fill:none;stroke:#000000;stroke-width:0.26458332px;stroke-linecap:butt;stroke-linejoin:miter;stroke-opacity:1"
       d="m 106.21131,-0.08928587 h 104.6994"
       id="path837"
       inkscape:connector-curvature="0"
       inkscape:path-effect="#path-effect839"
       inkscape:original-d="m 106.21131,-0.08928587 c 34.77407,-2.6458e-4 69.79987,-2.6458e-4 104.6994,0" />
    <path
       style="fill:none;stroke:#000000;stroke-width:0.26458332px;stroke-linecap:butt;stroke-linejoin:miter;stroke-opacity:1"
       d="m 106.21131,-0.08928587 h 104.6994 L 210.53274,165.08631 v 0"
       id="path849"
       inkscape:connector-curvature="0" />
    <path
       style="fill:#9bb9d1;fill-opacity:1;stroke:none;stroke-width:0.37797621;stroke-opacity:1"
       d="m 205.05208,164.01742 c -5.02479,-0.51981 -11.74569,-2.41535 -15.87518,-4.4774 -5.05926,-2.52632 -8.37707,-5.63147 -14.93171,-13.97459 -7.18188,-9.14152 -13.12663,-13.20454 -22.10977,-15.11123 -1.35127,-0.28681 -5.26332,-0.88459 -8.69345,-1.32839 -12.12715,-1.56908 -16.68314,-3.26867 -21.88841,-8.16542 -12.2341,-11.50897 -17.73778,-34.072566 -13.08282,-53.63604 0.9798,-4.117816 2.08429,-7.305145 5.04265,-14.552083 2.56808,-6.2909 3.20987,-8.911076 3.1941,-13.040177 -0.0153,-4.011472 -0.94372,-7.177945 -3.02302,-10.310535 -1.81514,-2.734624 -4.20336,-4.44442 -10.46471,-7.491961 -4.140061,-2.015062 -5.716088,-3.007461 -7.405167,-4.662916 -3.447942,-3.379306 -4.230854,-7.154416 -2.139254,-10.3152199 0.633671,-0.9576 2.142823,-1.893054 6.677341,-4.138985 l 5.85863,-2.90175897 52.31781,-0.02756 52.3178,-0.02756 -0.25145,59.24776687 c -0.1383,32.586274 -0.25151,69.580689 -0.25159,82.209819 l -1.3e-4,22.96206 -1.98438,-0.0605 c -1.0914,-0.0333 -2.57968,-0.12207 -3.30729,-0.19733 z"
       id="path851"
       inkscape:connector-curvature="0" />
    <path
       style="fill:none;stroke:#000000;stroke-width:0.26458332px;stroke-linecap:butt;stroke-linejoin:miter;stroke-opacity:1"
       d="m 0,232.32077 c 0,65.21377 0,65.21377 0,65.21377 l 210.53274,0.22141 v 0 l 0.61019,-23.20659"
       id="path853"
       inkscape:connector-curvature="0" />
    <path
       style="fill:#a0a0a0;stroke:none;stroke-width:0.37797621"
       d="m 0.838548,265.40188 v -32.35407 l 2.362351,0.25643 c 7.382985,0.80143 15.073593,3.02953 21.639137,6.26922 5.550095,2.73863 8.606466,5.01157 16.141103,12.00368 8.60918,7.98928 12.167288,10.24496 18.676234,11.83991 4.973225,1.21863 12.087981,1.13202 21.879091,-0.26636 6.257417,-0.89369 8.829077,-1.07919 14.930059,-1.07697 8.255147,0.003 11.934867,0.50278 19.276787,2.61812 4.26515,1.22886 5.50065,1.70447 17.44193,6.71447 10.63575,4.46225 17.88066,6.0485 27.72622,6.07052 7.26081,0.0164 10.10495,-0.44974 20.04402,-3.28399 9.83048,-2.80328 11.09394,-3.04535 15.86372,-3.03926 4.74865,0.006 7.63417,0.64629 11.72778,2.60223 l 2.65635,1.2692 -0.10693,4.08943 c -0.0588,2.2492 -0.20969,7.36364 -0.33529,11.36547 l -0.22837,7.27604 H 105.68565 0.838548 Z"
       id="path855"
       inkscape:connector-curvature="0" />
    <path
       style="fill:#9bb9d1;stroke:none;stroke-width:1.42857146;fill-opacity:1"
       d="m 1.6277888,1124.7277 c 1.0599547,-0.3533 1.5211804,-37.3309 1.5211804,-121.9568 V 881.32108 l 8.9285718,0.99887 c 26.861568,3.00508 60.695995,13.13195 84.183607,25.19671 17.566262,9.02317 31.076192,18.91825 52.602102,38.52738 40.92478,37.2806 53.60745,45.29566 80.19996,50.684 15.35207,3.11072 52.9471,2.12394 85.51433,-2.24456 20.56284,-2.75826 27.85639,-3.07 57.14286,-2.44238 45.90906,0.98385 55.02976,3.22982 120.82516,29.7531 55.50305,22.3743 75.36494,26.9503 116.97754,26.9503 27.8119,0 35.74597,-1.3262 78.62587,-13.142 29.59843,-8.1561 32.55609,-8.7001 50.7911,-9.3422 21.73151,-0.7652 29.4554,0.5972 47.58597,8.3935 l 10.61294,4.5636 0.61795,10.1207 c 0.33987,5.5664 0.0816,14.9421 -0.57416,20.8349 -0.65566,5.8929 -1.0927,20.2077 -0.97123,31.8107 0.12143,11.603 -0.0357,21.338 -0.34941,21.6334 -0.31367,0.2954 -179.48697,0.7802 -398.16292,1.0774 -218.67593,0.2971 -396.90807052,0.3121 -396.0714212,0.033 z"
       id="path859"
       inkscape:connector-curvature="0"
       transform="scale(0.26458333)" />
  </g>
</svg>
