<?xml version="1.0" encoding="UTF-8" standalone="no"?>
<!-- Created with Inkscape (http://www.inkscape.org/) -->

<svg
   xmlns:dc="http://purl.org/dc/elements/1.1/"
   xmlns:cc="http://creativecommons.org/ns#"
   xmlns:rdf="http://www.w3.org/1999/02/22-rdf-syntax-ns#"
   xmlns:svg="http://www.w3.org/2000/svg"
   xmlns="http://www.w3.org/2000/svg"
   xmlns:sodipodi="http://sodipodi.sourceforge.net/DTD/sodipodi-0.dtd"
   xmlns:inkscape="http://www.inkscape.org/namespaces/inkscape"
   width="210mm"
   height="297mm"
   viewBox="0 0 210 297"
   version="1.1"
   id="svg825"
   inkscape:version="0.92.5 (2060ec1f9f, 2020-04-08)"
   sodipodi:docname="overlayInkscape4.svg">
  <defs
     id="defs819">
    <inkscape:path-effect
       effect="spiro"
       id="path-effect829"
       is_visible="true" />
  </defs>
  <sodipodi:namedview
     id="base"
     pagecolor="#ffffff"
     bordercolor="#666666"
     borderopacity="1.0"
     inkscape:pageopacity="0.0"
     inkscape:pageshadow="2"
     inkscape:zoom="0.49497475"
     inkscape:cx="82.000622"
     inkscape:cy="802.43661"
     inkscape:document-units="mm"
     inkscape:current-layer="layer1"
     showgrid="false"
     inkscape:window-width="1366"
     inkscape:window-height="688"
     inkscape:window-x="0"
     inkscape:window-y="28"
     inkscape:window-maximized="1" />
  <metadata
     id="metadata822">
    <rdf:RDF>
      <cc:Work
         rdf:about="">
        <dc:format>image/svg+xml</dc:format>
        <dc:type
           rdf:resource="http://purl.org/dc/dcmitype/StillImage" />
        <dc:title></dc:title>
      </cc:Work>
    </rdf:RDF>
  </metadata>
  <g
     inkscape:label="Capa 1"
     inkscape:groupmode="layer"
     id="layer1">
    <path
       style="fill:#2879c2;stroke:none;stroke-width:0.26458332px;stroke-linecap:butt;stroke-linejoin:miter;stroke-opacity:0.3137255;fill-opacity:0.3137255"
       d="m 22.985179,4.6071284 c -0.847109,1.436469 -0.965643,3.2276392 -0.558266,4.8447601 0.407378,1.6171205 1.302182,3.0763735 2.364064,4.3622365 2.123763,2.571727 4.949855,4.553903 6.746827,7.363714 1.924825,3.009726 2.487671,6.721831 2.309772,10.28999 -0.177899,3.568158 -1.043448,7.060193 -1.775232,10.557034 -1.410304,6.739156 -2.334216,13.572753 -3.741774,20.312483 -1.627094,7.790919 -3.911782,15.562522 -3.741774,23.519717 0.169181,7.918509 2.768937,15.611537 3.207233,23.519717 0.57719,10.41424 -2.602156,20.63549 -3.741772,31.00327 -1.052038,9.57103 -0.36038,19.23801 -0.534539,28.86511 -0.174317,9.63583 -1.216779,19.23546 -1.603617,28.8651 -0.419291,10.43751 -0.03849,21.07439 3.207234,31.00327 2.079858,6.36241 5.349045,12.54966 5.345391,19.2434 -0.0019,3.51489 -0.917342,6.95461 -1.574181,10.40758 -0.656839,3.45297 -1.049389,7.0758 -0.02944,10.43945 0.976157,3.21922 3.203628,5.96649 5.90085,7.97678 2.697222,2.01029 5.849831,3.33225 9.066246,4.31761 10.666269,3.26766 22.148559,2.96749 33.141419,1.06908 8.926009,-1.54147 17.695719,-4.11335 26.726958,-4.81084 14.37286,-1.11003 28.61849,2.56315 42.76312,5.34538 9.97877,1.96281 20.04801,3.49416 29.93419,5.87994 4.50318,1.08673 9.00562,2.35629 13.63299,2.57314 4.62738,0.21685 9.49087,-0.73063 13.09396,-3.64222 1.40357,-1.1342 2.60282,-2.576 3.20723,-4.27633 0.64679,-1.81955 0.57737,-3.82821 0.17369,-5.71663 -0.40369,-1.88843 -1.12652,-3.69055 -1.7773,-5.50868 -1.78,-4.97289 -3.04799,-10.23312 -2.6727,-15.50163 0.31414,-4.40995 1.76295,-8.64955 3.20138,-12.83013 1.43843,-4.18059 2.89099,-8.41836 3.21309,-12.82774 0.3155,-4.31902 -0.46886,-8.64973 -1.60362,-12.82894 -1.38393,-5.0969 -3.31445,-10.25932 -2.67269,-15.50163 0.30076,-2.45682 1.15858,-4.80456 1.91165,-7.16238 0.75306,-2.35781 1.41252,-4.79779 1.29558,-7.27018 -0.12437,-2.62967 -1.11826,-5.13329 -2.17254,-7.54557 -1.05428,-2.41229 -2.19336,-4.82679 -2.63831,-7.42152 -0.52087,-3.03744 -0.0603,-6.15864 0.63187,-9.16169 0.69214,-3.00305 1.61682,-5.96017 2.04082,-9.01264 0.88409,-6.36474 -0.44054,-12.89197 0.53454,-19.24341 0.4135,-2.69344 1.235,-5.31013 1.67816,-7.99885 0.44317,-2.68872 0.48485,-5.54154 -0.60908,-8.03732 -0.7791,-1.7775 -2.08209,-3.26229 -3.21106,-4.84087 -0.56449,-0.78929 -1.09083,-1.61147 -1.48272,-2.4992 -0.39189,-0.88772 -0.64714,-1.84581 -0.65161,-2.81617 -0.009,-1.86769 0.90244,-3.62055 1.9961,-5.13457 1.09366,-1.51402 2.39378,-2.88234 3.34929,-4.48713 1.45606,-2.445483 2.03954,-5.343058 2.00709,-8.189011 -0.0325,-2.845953 -0.65415,-5.655768 -1.47255,-8.381702 -1.11015,-3.697685 -2.60149,-7.365235 -2.67269,-11.225318 -0.0576,-3.123724 0.8234,-6.183967 1.80408,-9.150321 0.98067,-2.966353 2.07606,-5.924973 2.47223,-9.024009 0.71038,-5.557009 -0.86668,-11.114674 -2.13816,-16.570711 -1.46975,-6.306849 -2.55025,-12.837127 -1.60362,-19.243404 0.34942,-2.364695 0.97289,-4.692667 1.12571,-7.07815 0.0764,-1.192741 0.0333,-2.3991389 -0.21942,-3.5673004 -0.25273,-1.1681614 -0.72017,-2.2990809 -1.44082,-3.2525652 -0.84359,-1.1161431 -2.02728,-1.9681161 -3.34706,-2.4324329 -1.31978,-0.4643168 -2.7703,-0.5418533 -4.13649,-0.2402623 -1.87706,0.4143687 -3.53027,1.5053829 -5.34539,2.1381562 -2.21388,0.7717883 -4.62466,0.8416723 -6.94901,0.534539 -2.89027,-0.3819115 -5.67102,-1.3251893 -8.48088,-2.1024835 -2.80986,-0.7772941 -5.72355,-1.3958155 -8.62437,-1.1047507 -3.3783,0.3389741 -6.49645,1.880343 -9.6217,3.2072342 -3.72097,1.5798167 -7.58832,2.8919787 -11.5962,3.419513 -4.00788,0.5275343 -8.17887,0.2414814 -11.92352,-1.2813566 -3.10598,-1.2631104 -5.86603,-3.3452538 -9.08716,-4.2763125 -3.64804,-1.0544554 -7.58138,-0.5339897 -11.22532,0.534539 -3.08296,0.9040291 -6.04049,2.1875986 -9.08717,3.2072344 C 101.49638,7.4851122 97.527665,8.3477495 93.513637,8.4527696 89.49961,8.5577897 85.433226,7.8870709 81.784475,6.2107457 79.098306,4.9766542 76.63002,3.2025225 73.766388,2.4689723 70.620654,1.6631585 67.288901,2.1917897 64.144686,3.0035113 60.519487,3.9394055 56.993618,5.2451483 53.342034,6.0721343 49.690451,6.8991204 45.830657,7.2320353 42.228584,6.2107457 38.832757,5.2479328 35.855458,3.1400296 32.476693,2.1189537 30.787311,1.6084158 28.979302,1.3792101 27.250938,1.736169 26.386756,1.9146485 25.549717,2.2398199 24.810965,2.7224284 24.072213,3.205037 23.43342,3.8470325 22.985179,4.6071284 Z"
       id="path827"
       inkscape:connector-curvature="0"
       inkscape:path-effect="#path-effect829"
       inkscape:original-d="m 22.985179,4.6071284 c -6.414733,-0.5342744 5.702015,11.0468756 8.552625,16.5707106 2.85061,5.523834 0.356624,13.897751 0.53454,20.847024 0.177914,6.949271 -2.494253,13.541391 -3.741774,20.312483 -1.247524,6.771092 -2.494252,15.679547 -3.741774,23.519717 -1.247522,7.84017 2.13842,15.679547 3.207233,23.519717 1.068814,7.84017 -2.49425,20.66858 -3.741772,31.00327 -1.247522,10.33468 -0.356095,19.24314 -0.534539,28.86511 -0.178444,9.62196 -1.068813,19.24314 -1.603617,28.8651 -0.534804,9.62197 2.138421,20.66858 3.207234,31.00327 1.068814,10.33469 3.563859,12.82867 5.345391,19.2434 1.781532,6.41474 -1.068814,13.89775 -1.603619,20.84703 -0.534802,6.94928 9.978329,8.196 14.967096,12.29439 4.988766,4.0984 22.094544,0.71245 33.141419,1.06908 11.046875,0.35663 17.818235,-3.20749 26.726958,-4.81084 8.90872,-1.60335 28.50901,3.56333 42.76312,5.34538 14.25411,1.78207 19.95639,3.91969 29.93419,5.87994 9.97779,1.96024 17.81823,-0.713 26.72695,-1.06908 8.90872,-0.3561 2.13842,-2.85115 3.20723,-4.27633 1.06881,-1.42517 -1.06881,-7.48379 -1.60361,-11.22531 -0.53481,-3.7415 -1.78154,-10.33468 -2.6727,-15.50163 -0.89116,-5.16695 4.27658,-17.10551 6.41447,-25.65787 2.13789,-8.55236 -1.06882,-8.55289 -1.60362,-12.82894 -0.5348,-4.27605 -1.78153,-10.33469 -2.67269,-15.50163 -0.89117,-5.16695 2.13842,-9.62197 3.20723,-14.43256 1.06881,-4.81059 -3.20697,-9.97833 -4.81085,-14.96709 -1.60388,-4.98877 1.78206,-12.11648 2.67269,-18.17433 0.89064,-6.05785 0.35663,-12.8292 0.53454,-19.24341 0.17792,-6.4142 0.71299,-10.69104 1.06908,-16.03617 0.3561,-5.34512 -3.56333,-6.77109 -5.34539,-10.15624 -1.78206,-3.38515 3.56386,-6.41473 5.34539,-9.6217 1.78153,-3.206972 0.35663,-11.047406 0.53454,-16.570713 0.17792,-5.523304 -1.78153,-7.483811 -2.67269,-11.225318 -0.89117,-3.74151 2.85114,-12.116485 4.27631,-18.17433 1.42517,-6.057844 -1.42517,-11.047404 -2.13816,-16.570711 -0.71298,-5.523304 -1.06881,-12.8292 -1.60362,-19.243404 -0.5348,-6.414204 -0.35609,-9.2656084 -0.53453,-13.8980156 -0.17845,-4.63240709 -4.98877,-1.7820613 -7.48355,-2.6726952 -2.49478,-0.8906338 -3.56333,1.4251729 -5.34539,2.1381562 -1.78206,0.7129833 -4.63241,0.3560947 -6.94901,0.534539 -2.3166,0.1784443 -11.40323,-2.1384207 -17.10525,-3.2072342 -5.70201,-1.06881351 -6.4142,2.1378916 -9.6217,3.2072342 -3.2075,1.0693426 -15.67955,1.4251731 -23.51972,2.1381564 -7.84017,0.7129833 -6.05784,-2.8511397 -9.08716,-4.2763125 -3.02932,-1.4251729 -7.48329,0.3560948 -11.22532,0.534539 -3.74204,0.1784443 -6.05785,2.1378915 -9.08717,3.2072344 -3.02932,1.0693427 -15.679545,-2.645e-4 -23.519715,0 C 73.944304,6.2110103 76.439349,3.7159654 73.766388,2.4689723 71.09343,1.2219791 67.352184,2.8250671 64.144686,3.0035113 60.937187,3.1819556 49.534217,5.1414028 42.228584,6.2107457 34.922954,7.2800884 29.399912,5.1414028 22.985179,4.6071284 Z" />
  </g>
</svg>
