<?xml version="1.0" encoding="UTF-8" standalone="no"?>
<!-- Created with Inkscape (http://www.inkscape.org/) -->

<svg
   xmlns:dc="http://purl.org/dc/elements/1.1/"
   xmlns:cc="http://creativecommons.org/ns#"
   xmlns:rdf="http://www.w3.org/1999/02/22-rdf-syntax-ns#"
   xmlns:svg="http://www.w3.org/2000/svg"
   xmlns="http://www.w3.org/2000/svg"
   xmlns:sodipodi="http://sodipodi.sourceforge.net/DTD/sodipodi-0.dtd"
   xmlns:inkscape="http://www.inkscape.org/namespaces/inkscape"
   width="210mm"
   height="297mm"
   viewBox="0 0 210 297"
   version="1.1"
   id="svg4526"
   inkscape:version="0.92.5 (2060ec1f9f, 2020-04-08)"
   sodipodi:docname="overlayInkscape3.svg">
  <defs
     id="defs4520">
    <inkscape:path-effect
       effect="spiro"
       id="path-effect5073"
       is_visible="true" />
  </defs>
  <sodipodi:namedview
     id="base"
     pagecolor="#ffffff"
     bordercolor="#666666"
     borderopacity="1.0"
     inkscape:pageopacity="0.0"
     inkscape:pageshadow="2"
     inkscape:zoom="0.49497475"
     inkscape:cx="45.824473"
     inkscape:cy="350.20006"
     inkscape:document-units="mm"
     inkscape:current-layer="layer1"
     showgrid="false"
     inkscape:window-width="1366"
     inkscape:window-height="688"
     inkscape:window-x="0"
     inkscape:window-y="28"
     inkscape:window-maximized="1" />
  <metadata
     id="metadata4523">
    <rdf:RDF>
      <cc:Work
         rdf:about="">
        <dc:format>image/svg+xml</dc:format>
        <dc:type
           rdf:resource="http://purl.org/dc/dcmitype/StillImage" />
        <dc:title></dc:title>
      </cc:Work>
    </rdf:RDF>
  </metadata>
  <g
     inkscape:label="Capa 1"
     inkscape:groupmode="layer"
     id="layer1">
    <path
       style="fill:#2879c2;stroke:none;stroke-width:0.26458332px;stroke-linecap:butt;stroke-linejoin:miter;stroke-opacity:1;fill-opacity:0.3137255"
       d="m 71.628232,-0.20371456 c -12.283038,0.1227626 -24.44486,5.22288166 -33.14142,13.89801556 -4.705545,4.693951 -8.479356,10.557702 -9.621705,17.105249 -0.859488,4.926287 -0.204954,9.970592 0,14.967093 0.475868,11.601029 -1.510345,23.251359 -5.345389,34.2105 -2.163328,6.181993 -4.928447,12.228766 -5.879929,18.708867 -1.3615,9.27254 1.202359,18.938 6.414468,26.72695 1.813859,2.71062 3.930278,5.20556 5.816229,7.86652 1.88595,2.66097 3.560531,5.53718 4.340014,8.70419 0.948121,3.85218 0.516085,7.93436 -0.53454,11.75986 -2.290154,8.33883 -7.406145,15.69531 -9.621703,24.05426 -1.288304,4.86057 -1.559233,9.96263 -1.069078,14.96709 0.705649,7.20463 2.959342,14.18486 3.741772,21.38156 1.079372,9.92793 -0.667899,19.97011 0,29.93419 0.45382,6.77034 2.095097,13.61149 5.879931,19.24341 4.129481,6.14476 10.61627,10.48782 17.639789,12.82894 11.107619,3.70246 23.222994,2.61538 34.745038,0.53453 7.875116,-1.42222 15.663631,-3.28704 23.519721,-4.81086 23.79936,-4.61628 49.17545,-5.93564 71.62823,3.20725 6.00094,2.44361 11.9386,5.81354 15.50163,11.22532 1.27917,1.94289 2.22728,4.1143 3.74178,5.87991 1.45079,1.69134 3.36675,2.93679 5.40145,3.84532 2.0347,0.90852 4.19594,1.49688 6.3584,2.03463 45.24771,11.25206 95.43448,0.53694 132.14159,-28.21286 36.70712,-28.74981 59.13442,-74.9076 59.05101,-121.53331 -0.0834,-46.6257 -22.6757,-92.70296 -59.48544,-121.321252 C 306.04033,-1.6166336 255.81555,-12.152125 210.60839,-0.73825361"
       id="path5071"
       inkscape:connector-curvature="0"
       inkscape:path-effect="#path-effect5073"
       inkscape:original-d="M 71.628232,-0.20371456 C 60.581357,4.4286926 49.534217,9.0613644 38.486812,13.694301 27.439405,18.327237 32.072609,25.097536 28.865107,30.79955 c -3.207497,5.702014 2.65e-4,9.977797 0,14.967093 -2.64e-4,4.989295 -3.563328,22.806736 -5.345389,34.2105 -1.782061,11.403764 -3.919688,12.472313 -5.879929,18.708867 -1.960241,6.23655 4.276577,17.8177 6.414468,26.72695 2.137892,8.90925 6.771093,11.04688 10.156243,16.57071 3.385148,5.52384 -0.356095,7.83964 -0.53454,11.75986 -0.178443,3.92022 -6.414204,16.03591 -9.621703,24.05426 -3.207499,8.01835 -0.712454,9.9778 -1.069078,14.96709 -0.356624,4.9893 2.49478,14.25411 3.741772,21.38156 1.246995,7.12746 2.65e-4,19.95586 0,29.93419 -2.64e-4,9.97833 3.92022,12.82867 5.879931,19.24341 1.959713,6.41472 11.760123,8.55234 17.639789,12.82894 5.879663,4.27656 23.163622,0.3561 34.745038,0.53453 11.581415,0.17844 15.680071,-3.20749 23.519721,-4.81086 7.83964,-1.60335 47.75242,2.13791 71.62823,3.20725 23.87581,1.06934 10.33469,7.48326 15.50163,11.22532 5.16695,3.74203 2.49478,3.9197 3.74178,5.87991 1.24699,1.96025 7.84017,3.9197 11.75985,5.87995 3.91969,1.96024 -0.35609,-199.205156 -0.53453,-298.80733361" />
  </g>
</svg>
