<?xml version="1.0" encoding="UTF-8" standalone="no"?>
<!-- Created with Inkscape (http://www.inkscape.org/) -->

<svg
   xmlns:dc="http://purl.org/dc/elements/1.1/"
   xmlns:cc="http://creativecommons.org/ns#"
   xmlns:rdf="http://www.w3.org/1999/02/22-rdf-syntax-ns#"
   xmlns:svg="http://www.w3.org/2000/svg"
   xmlns="http://www.w3.org/2000/svg"
   xmlns:sodipodi="http://sodipodi.sourceforge.net/DTD/sodipodi-0.dtd"
   xmlns:inkscape="http://www.inkscape.org/namespaces/inkscape"
   width="210mm"
   height="297mm"
   viewBox="0 0 210 297"
   version="1.1"
   id="svg8"
   inkscape:version="0.92.5 (2060ec1f9f, 2020-04-08)"
   sodipodi:docname="overlayInkscape9.svg">
  <defs
     id="defs2">
    <inkscape:path-effect
       effect="spiro"
       id="path-effect828"
       is_visible="true" />
    <inkscape:path-effect
       effect="spiro"
       id="path-effect843"
       is_visible="true" />
    <inkscape:path-effect
       effect="spiro"
       id="path-effect839"
       is_visible="true" />
    <inkscape:path-effect
       effect="spiro"
       id="path-effect829"
       is_visible="true" />
    <inkscape:path-effect
       effect="spiro"
       id="path-effect825"
       is_visible="true" />
    <inkscape:path-effect
       effect="spiro"
       id="path-effect817"
       is_visible="true" />
  </defs>
  <sodipodi:namedview
     id="base"
     pagecolor="#ffffff"
     bordercolor="#666666"
     borderopacity="1.0"
     inkscape:pageopacity="0.0"
     inkscape:pageshadow="2"
     inkscape:zoom="0.7"
     inkscape:cx="337.95317"
     inkscape:cy="396.87417"
     inkscape:document-units="mm"
     inkscape:current-layer="layer1"
     showgrid="false"
     inkscape:window-width="1366"
     inkscape:window-height="688"
     inkscape:window-x="0"
     inkscape:window-y="28"
     inkscape:window-maximized="1" />
  <metadata
     id="metadata5">
    <rdf:RDF>
      <cc:Work
         rdf:about="">
        <dc:format>image/svg+xml</dc:format>
        <dc:type
           rdf:resource="http://purl.org/dc/dcmitype/StillImage" />
        <dc:title></dc:title>
      </cc:Work>
    </rdf:RDF>
  </metadata>
  <g
     inkscape:label="Capa 1"
     inkscape:groupmode="layer"
     id="layer1"
     style="opacity:1">
    <path
       style="fill:none;stroke:#000000;stroke-width:0.26458332px;stroke-linecap:butt;stroke-linejoin:miter;stroke-opacity:1"
       d="m 0,232.32077 v 65.21377"
       id="path823"
       inkscape:connector-curvature="0"
       inkscape:path-effect="#path-effect825"
       inkscape:original-d="m 0,232.32077 c 2.6458333e-4,21.73766 2.6458333e-4,43.47558 0,65.21377" />
    <path
       style="fill:none;stroke:#000000;stroke-width:0.26458332px;stroke-linecap:butt;stroke-linejoin:miter;stroke-opacity:1"
       d="m 106.21131,-0.08928587 h 104.6994"
       id="path837"
       inkscape:connector-curvature="0"
       inkscape:path-effect="#path-effect839"
       inkscape:original-d="m 106.21131,-0.08928587 c 34.77407,-2.6458e-4 69.79987,-2.6458e-4 104.6994,0" />
    <path
       style="fill:none;stroke:#000000;stroke-width:0.26458332px;stroke-linecap:butt;stroke-linejoin:miter;stroke-opacity:1"
       d="m 106.21131,-0.08928587 h 104.6994 L 210.53274,165.08631 v 0"
       id="path849"
       inkscape:connector-curvature="0" />
    <path
       style="fill:#9bb9d1;fill-opacity:1;stroke:none;stroke-width:0.37797621;stroke-opacity:1"
       d="m 205.05208,164.01742 c -5.02479,-0.51981 -11.74569,-2.41535 -15.87518,-4.4774 -5.05926,-2.52632 -8.37707,-5.63147 -14.93171,-13.97459 -7.18188,-9.14152 -13.12663,-13.20454 -22.10977,-15.11123 -1.35127,-0.28681 -5.26332,-0.88459 -8.69345,-1.32839 -12.12715,-1.56908 -16.68314,-3.26867 -21.88841,-8.16542 -12.2341,-11.50897 -17.73778,-34.072566 -13.08282,-53.63604 0.9798,-4.117816 2.08429,-7.305145 5.04265,-14.552083 2.56808,-6.2909 3.20987,-8.911076 3.1941,-13.040177 -0.0153,-4.011472 -0.94372,-7.177945 -3.02302,-10.310535 -1.81514,-2.734624 -4.20336,-4.44442 -10.46471,-7.491961 -4.140061,-2.015062 -5.716088,-3.007461 -7.405167,-4.662916 -3.447942,-3.379306 -4.230854,-7.154416 -2.139254,-10.3152199 0.633671,-0.9576 2.142823,-1.893054 6.677341,-4.138985 l 5.85863,-2.90175897 52.31781,-0.02756 52.3178,-0.02756 -0.25145,59.24776687 c -0.1383,32.586274 -0.25151,69.580689 -0.25159,82.209819 l -1.3e-4,22.96206 -1.98438,-0.0605 c -1.0914,-0.0333 -2.57968,-0.12207 -3.30729,-0.19733 z"
       id="path851"
       inkscape:connector-curvature="0" />
    <path
       style="fill:none;stroke:#000000;stroke-width:0.26458332px;stroke-linecap:butt;stroke-linejoin:miter;stroke-opacity:1"
       d="m 0,232.32077 c 0,65.21377 0,65.21377 0,65.21377 l 210.53274,0.22141 v 0 l 0.61019,-23.20659"
       id="path853"
       inkscape:connector-curvature="0" />
    <path
       style="fill:#9bb9d1;fill-opacity:1;stroke:none;stroke-width:0.30840105"
       d="m -0.09848089,297.60187 c 0.28044635,-0.0622 0.40247898,-6.57558 0.40247898,-21.48183 v -21.39253 l 2.36235121,0.17594 c 7.107123,0.52933 16.0591477,2.3131 22.2735787,4.43823 4.64774,1.58936 8.222242,3.33231 13.917639,6.78632 10.828015,6.56672 14.183638,7.97851 21.219573,8.92763 4.061902,0.54793 14.00892,0.37412 22.625666,-0.39536 5.440585,-0.48585 7.370337,-0.54076 15.119048,-0.43021 12.146766,0.1733 14.559956,0.56891 31.968316,5.2408 14.68519,3.94107 19.94031,4.7471 30.95031,4.7471 7.35857,0 9.45779,-0.2336 20.8031,-2.31487 7.83125,-1.43664 8.61379,-1.53246 13.43847,-1.64556 5.7498,-0.13479 7.79341,0.10519 12.59046,1.47845 l 2.80801,0.80385 0.1635,1.78269 c 0.0899,0.98048 0.0216,2.63195 -0.15192,3.66992 -0.17347,1.03799 -0.28911,3.55944 -0.25697,5.60323 0.0321,2.04379 -0.009,3.75854 -0.0924,3.81057 -0.083,0.052 -47.48926,0.13743 -105.34727,0.18978 -57.858001,0.0523 -105.01525435,0.055 -104.79389089,0.006 z"
       id="path859"
       inkscape:connector-curvature="0" />
    <path
       style="fill:#9bb9d1;fill-opacity:1;stroke:none;stroke-width:0.26458332px;stroke-linecap:butt;stroke-linejoin:miter;stroke-opacity:1"
       d="m 15.497024,154.50298 c -0.10465,-1.50972 -0.123212,-3.0274 0,-4.53572 0.200268,-2.45162 0.787064,-4.89771 1.965404,-7.05689 1.178341,-2.15918 2.977134,-4.01984 5.216143,-5.03835 1.858946,-0.84563 3.931354,-1.08653 5.869495,-1.73024 0.969071,-0.32186 1.913422,-0.7503 2.720407,-1.37597 0.806984,-0.62567 1.472705,-1.46054 1.785305,-2.43264 0.229626,-0.71407 0.263592,-1.47969 0.192669,-2.22641 -0.07092,-0.74672 -0.243948,-1.47955 -0.421161,-2.2084 -0.177212,-0.72885 -0.359507,-1.45878 -0.449539,-2.20344 -0.09003,-0.74466 -0.08567,-1.50915 0.107078,-2.23405 0.258117,-0.97075 0.852826,-1.83924 1.627397,-2.47879 0.774572,-0.63955 1.722645,-1.05491 2.70765,-1.25176 1.97001,-0.39371 4.024971,0.0765 5.871107,0.86881 1.846136,0.79229 3.538211,1.89717 5.304114,2.85505 1.765902,0.95788 3.656016,1.78272 5.658934,1.93849 2.921979,0.22725 5.778417,-0.99444 8.236045,-2.59121 2.457629,-1.59677 4.645708,-3.58246 7.115741,-5.15997 1.235016,-0.78876 2.54351,-1.47548 3.936193,-1.93137 1.392683,-0.45589 2.874194,-0.67667 4.332118,-0.52882 1.457925,0.14784 2.891348,0.67617 4.027224,1.60202 1.135876,0.92584 1.95616,2.2609 2.158765,3.71223 0.129522,0.92781 0.0088,1.88236 -0.29061,2.77004 -0.299377,0.88768 -0.773879,1.71045 -1.344424,2.45348 -1.14109,1.48604 -2.646642,2.64318 -4.126675,3.79206 -1.480033,1.14888 -2.972648,2.32786 -4.074793,3.84301 -0.551073,0.75758 -0.999081,1.59622 -1.263686,2.49488 -0.264604,0.89866 -0.341956,1.85912 -0.164474,2.77896 0.204076,1.05767 0.740011,2.0353 1.447672,2.84741 0.707662,0.81211 1.582822,1.46575 2.513896,2.00743 1.862147,1.08335 3.944955,1.72921 5.865813,2.70468 4.667782,2.37044 8.270839,6.77319 9.613656,11.83324 1.342817,5.06004 0.38542,10.69537 -2.601959,14.99453 -1.855554,2.67034 -4.394545,4.77584 -6.636529,7.13111 -1.120993,1.17763 -2.176107,2.42878 -3.016221,3.82077 -0.840114,1.392 -1.46233,2.93277 -1.671384,4.54514 -0.366144,2.82396 0.541193,5.6425 1.473172,8.33328 0.931978,2.69077 1.915238,5.46636 1.705338,8.30621 -0.139981,1.89388 -0.819996,3.7354 -1.883244,5.3089 -1.063247,1.57349 -2.50268,2.88102 -4.133279,3.85444 -3.261198,1.94682 -7.210457,2.52577 -10.992407,2.17595 -3.514846,-0.32511 -6.908045,-1.40438 -10.325639,-2.2875 -3.417593,-0.88311 -6.96381,-1.57812 -10.463052,-1.11429 -3.051144,0.40444 -5.909202,1.66781 -8.785932,2.7621 -2.876731,1.09429 -5.91293,2.04305 -8.978947,1.77362 -3.795093,-0.3335 -7.303548,-2.5975 -9.452341,-5.7434 -2.148793,-3.14589 -2.986594,-7.09338 -2.642897,-10.88756 0.569774,-6.28991 4.164229,-11.92863 5.291666,-18.14285 0.852612,-4.69943 0.259997,-9.53928 -0.626328,-14.23247 -0.886325,-4.69319 -2.067203,-9.35102 -2.397481,-14.11574 z"
       id="path826"
       inkscape:connector-curvature="0"
       inkscape:path-effect="#path-effect828"
       inkscape:original-d="m 15.497024,154.50298 c -1.008201,-9.44915 2.64e-4,-3.02408 0,-4.53572 -2.65e-4,-1.51164 4.787963,-8.06376 7.181547,-12.09524 2.393585,-4.03148 4.075867,-5.28713 10.375207,-5.53885 6.299338,-0.25172 -4.980411,-10.51046 -0.570953,-8.8723 1.912578,0.71054 18.552785,2.62876 21.169202,1.9318 1.306913,-0.34814 26.983166,-7.40143 29.806086,-4.89712 4.555059,4.04095 -13.290712,18.52876 -11.264662,18.13243 5.795369,-1.13367 6.551853,5.03941 9.827381,7.55952 3.275529,2.5201 7.515932,18.26004 7.011697,26.82777 -0.504232,8.56772 -9.307996,10.33108 -11.324134,15.49702 -2.016138,5.16594 1.036909,10.7176 3.17851,16.63949 2.141598,5.92189 -11.339023,7.55926 -17.00893,11.33929 -5.669907,3.78003 -13.858862,-2.26812 -20.788691,-3.40179 -6.929826,-1.13366 -11.842988,3.02355 -17.764879,4.53572 -5.921892,1.51217 -8.063228,-11.08757 -12.095238,-16.63096 -4.032011,-5.54338 3.528042,-12.0955 5.291666,-18.14285 1.763624,-6.04736 -2.015608,-18.89908 -3.023809,-28.34821 z"
       transform="matrix(1.0124974,0,0,1.5793756,-0.16429873,-147.65854)"
       sodipodi:nodetypes="sssssssccsssscssss" />
  </g>
</svg>
