<?xml version="1.0" encoding="UTF-8" standalone="no"?>
<!-- Created with Inkscape (http://www.inkscape.org/) -->

<svg
   xmlns:dc="http://purl.org/dc/elements/1.1/"
   xmlns:cc="http://creativecommons.org/ns#"
   xmlns:rdf="http://www.w3.org/1999/02/22-rdf-syntax-ns#"
   xmlns:svg="http://www.w3.org/2000/svg"
   xmlns="http://www.w3.org/2000/svg"
   xmlns:sodipodi="http://sodipodi.sourceforge.net/DTD/sodipodi-0.dtd"
   xmlns:inkscape="http://www.inkscape.org/namespaces/inkscape"
   width="210mm"
   height="297mm"
   viewBox="0 0 210 297"
   version="1.1"
   id="svg8"
   inkscape:version="0.92.5 (2060ec1f9f, 2020-04-08)"
   sodipodi:docname="overlayInkscape6.svg">
  <defs
     id="defs2">
    <inkscape:path-effect
       effect="spiro"
       id="path-effect843"
       is_visible="true" />
    <inkscape:path-effect
       effect="spiro"
       id="path-effect839"
       is_visible="true" />
    <inkscape:path-effect
       effect="spiro"
       id="path-effect829"
       is_visible="true" />
    <inkscape:path-effect
       effect="spiro"
       id="path-effect825"
       is_visible="true" />
    <inkscape:path-effect
       effect="spiro"
       id="path-effect817"
       is_visible="true" />
  </defs>
  <sodipodi:namedview
     id="base"
     pagecolor="#ffffff"
     bordercolor="#666666"
     borderopacity="1.0"
     inkscape:pageopacity="0.0"
     inkscape:pageshadow="2"
     inkscape:zoom="0.7"
     inkscape:cx="286.47484"
     inkscape:cy="449.29199"
     inkscape:document-units="mm"
     inkscape:current-layer="layer1"
     showgrid="false"
     inkscape:window-width="1366"
     inkscape:window-height="688"
     inkscape:window-x="0"
     inkscape:window-y="28"
     inkscape:window-maximized="1" />
  <metadata
     id="metadata5">
    <rdf:RDF>
      <cc:Work
         rdf:about="">
        <dc:format>image/svg+xml</dc:format>
        <dc:type
           rdf:resource="http://purl.org/dc/dcmitype/StillImage" />
        <dc:title></dc:title>
      </cc:Work>
    </rdf:RDF>
  </metadata>
  <g
     inkscape:label="Capa 1"
     inkscape:groupmode="layer"
     id="layer1"
     style="opacity:1">
    <path
       style="fill:none;stroke:#000000;stroke-width:0.26458332px;stroke-linecap:butt;stroke-linejoin:miter;stroke-opacity:1"
       d="m 0,232.32077 v 65.21377"
       id="path823"
       inkscape:connector-curvature="0"
       inkscape:path-effect="#path-effect825"
       inkscape:original-d="m 0,232.32077 c 2.6458333e-4,21.73766 2.6458333e-4,43.47558 0,65.21377" />
    <path
       style="fill:none;stroke:#000000;stroke-width:0.26458332px;stroke-linecap:butt;stroke-linejoin:miter;stroke-opacity:1"
       d="m 106.21131,-0.08928587 h 104.6994"
       id="path837"
       inkscape:connector-curvature="0"
       inkscape:path-effect="#path-effect839"
       inkscape:original-d="m 106.21131,-0.08928587 c 34.77407,-2.6458e-4 69.79987,-2.6458e-4 104.6994,0" />
    <path
       style="fill:none;stroke:#000000;stroke-width:0.26458332px;stroke-linecap:butt;stroke-linejoin:miter;stroke-opacity:1"
       d="m 106.21131,-0.08928587 h 104.6994 L 210.53274,165.08631 v 0"
       id="path849"
       inkscape:connector-curvature="0" />
    <path
       style="fill:#9bb9d1;fill-opacity:1;stroke:none;stroke-width:0.37797621;stroke-opacity:1"
       d="m 205.05208,164.01742 c -5.02479,-0.51981 -11.74569,-2.41535 -15.87518,-4.4774 -5.05926,-2.52632 -8.37707,-5.63147 -14.93171,-13.97459 -7.18188,-9.14152 -13.12663,-13.20454 -22.10977,-15.11123 -1.35127,-0.28681 -5.26332,-0.88459 -8.69345,-1.32839 -12.12715,-1.56908 -16.68314,-3.26867 -21.88841,-8.16542 -12.2341,-11.50897 -17.73778,-34.072566 -13.08282,-53.63604 0.9798,-4.117816 2.08429,-7.305145 5.04265,-14.552083 2.56808,-6.2909 3.20987,-8.911076 3.1941,-13.040177 -0.0153,-4.011472 -0.94372,-7.177945 -3.02302,-10.310535 -1.81514,-2.734624 -4.20336,-4.44442 -10.46471,-7.491961 -4.140061,-2.015062 -5.716088,-3.007461 -7.405167,-4.662916 -3.447942,-3.379306 -4.230854,-7.154416 -2.139254,-10.3152199 0.633671,-0.9576 2.142823,-1.893054 6.677341,-4.138985 l 5.85863,-2.90175897 52.31781,-0.02756 52.3178,-0.02756 -0.25145,59.24776687 c -0.1383,32.586274 -0.25151,69.580689 -0.25159,82.209819 l -1.3e-4,22.96206 -1.98438,-0.0605 c -1.0914,-0.0333 -2.57968,-0.12207 -3.30729,-0.19733 z"
       id="path851"
       inkscape:connector-curvature="0" />
    <path
       style="fill:none;stroke:#000000;stroke-width:0.26458332px;stroke-linecap:butt;stroke-linejoin:miter;stroke-opacity:1"
       d="m 0,232.32077 c 0,65.21377 0,65.21377 0,65.21377 l 210.53274,0.22141 v 0 l 0.61019,-23.20659"
       id="path853"
       inkscape:connector-curvature="0" />
    <path
       style="fill:#9bb9d1;fill-opacity:1;stroke:none;stroke-width:0.30840105"
       d="m -0.09848089,297.60187 c 0.28044635,-0.0622 0.40247898,-6.57558 0.40247898,-21.48183 v -21.39253 l 2.36235121,0.17594 c 7.107123,0.52933 16.0591477,2.3131 22.2735787,4.43823 4.64774,1.58936 8.222242,3.33231 13.917639,6.78632 10.828015,6.56672 14.183638,7.97851 21.219573,8.92763 4.061902,0.54793 14.00892,0.37412 22.625666,-0.39536 5.440585,-0.48585 7.370337,-0.54076 15.119048,-0.43021 12.146766,0.1733 14.559956,0.56891 31.968316,5.2408 14.68519,3.94107 19.94031,4.7471 30.95031,4.7471 7.35857,0 9.45779,-0.2336 20.8031,-2.31487 7.83125,-1.43664 8.61379,-1.53246 13.43847,-1.64556 5.7498,-0.13479 7.79341,0.10519 12.59046,1.47845 l 2.80801,0.80385 0.1635,1.78269 c 0.0899,0.98048 0.0216,2.63195 -0.15192,3.66992 -0.17347,1.03799 -0.28911,3.55944 -0.25697,5.60323 0.0321,2.04379 -0.009,3.75854 -0.0924,3.81057 -0.083,0.052 -47.48926,0.13743 -105.34727,0.18978 -57.858001,0.0523 -105.01525435,0.055 -104.79389089,0.006 z"
       id="path859"
       inkscape:connector-curvature="0" />
  </g>
</svg>
